<svg id="Layer_1" data-name="Layer 1" xmlns="http://www.w3.org/2000/svg" viewBox="0 0 191.44 32.08"><defs><style>.cls-1{fill:#fff;}</style></defs><path class="cls-1" d="M0,27,4,4.63h6l5.49,8.54c.24.34.48.72.73,1.12s.49.79.71,1.17.43.72.6,1l.17-.07c0-.43.09-.81.14-1.15s.12-.7.18-1.09l1.63-9.54H26.2L22.24,27h-6L10,17.58l-.68-1.1c-.26-.43-.49-.82-.68-1.17l-.16,0c0,.48-.11.93-.18,1.37l-.18,1L6.56,27Z"/><path class="cls-1" d="M25.91,27l4-22.34H42.8a6.43,6.43,0,0,1,3.26.79,5.59,5.59,0,0,1,2.16,2.23A6.71,6.71,0,0,1,49,10.93a9.77,9.77,0,0,1-.6,3.45A8.18,8.18,0,0,1,44,19.08a8.58,8.58,0,0,1-3.46.68h-6.2L33.09,27ZM35.3,14.53H39a2.56,2.56,0,0,0,1.48-.39,2.32,2.32,0,0,0,.84-1,3.51,3.51,0,0,0,.28-1.43,1.69,1.69,0,0,0-.5-1.3,2.21,2.21,0,0,0-1.51-.45H36.11Z"/><path class="cls-1" d="M49,27,53,4.63H72.31L71.37,10H59.23l-.55,3.09H69.07l-.91,5.13H57.77l-.62,3.41H69.52L68.58,27Z"/><path class="cls-1" d="M82.8,27.36a29.66,29.66,0,0,1-4.15-.28,12,12,0,0,1-3.33-.92,5.32,5.32,0,0,1-2.21-1.82,5.11,5.11,0,0,1-.8-2.93c0-.3,0-.63,0-1a5.73,5.73,0,0,1,.18-1h6.79a1.45,1.45,0,0,0-.16.5,2.67,2.67,0,0,0,0,.48,1.5,1.5,0,0,0,.43,1.15,2.29,2.29,0,0,0,1.16.55,8.63,8.63,0,0,0,1.69.15c.33,0,.68,0,1.07-.05A6.53,6.53,0,0,0,84.6,22a2.07,2.07,0,0,0,.88-.51,1.21,1.21,0,0,0,.34-.92,1,1,0,0,0-.45-.86,4.09,4.09,0,0,0-1.24-.59c-.52-.16-1.1-.31-1.75-.45s-1.32-.3-2-.47-1.51-.43-2.26-.7a7.69,7.69,0,0,1-2-1.06,4.81,4.81,0,0,1-1.43-1.64,5,5,0,0,1-.54-2.42,7.21,7.21,0,0,1,.94-3.78,7.56,7.56,0,0,1,2.5-2.5,11.38,11.38,0,0,1,3.48-1.39,16.81,16.81,0,0,1,3.86-.44,19.11,19.11,0,0,1,3.74.34,10,10,0,0,1,3,1,5.64,5.64,0,0,1,2,1.81A4.62,4.62,0,0,1,94.33,10c0,.17,0,.37,0,.58s-.07.52-.13.91H87.45a2.75,2.75,0,0,0,0-.34v-.24a1.72,1.72,0,0,0-.57-1.29A2.82,2.82,0,0,0,85,9.11a5.77,5.77,0,0,0-1.8.24,2.61,2.61,0,0,0-1.09.62,1.13,1.13,0,0,0-.36.79,1.06,1.06,0,0,0,.26.72,2.41,2.41,0,0,0,.75.53,5.65,5.65,0,0,0,1.15.43c.44.12.94.23,1.48.34.84.17,1.73.38,2.68.63a12.68,12.68,0,0,1,2.64,1,5.66,5.66,0,0,1,2,1.71,4.43,4.43,0,0,1,.76,2.68,7.57,7.57,0,0,1-3.21,6.39,10.73,10.73,0,0,1-3.41,1.61A14.8,14.8,0,0,1,82.8,27.36Z"/><path class="cls-1" d="M100.92,27l3.93-22.27h7.38a7,7,0,0,1,3.16.6A3.73,3.73,0,0,1,117.1,7a5.3,5.3,0,0,1,.52,2.37A9.61,9.61,0,0,1,117,13a7.71,7.71,0,0,1-1.7,2.63,6.55,6.55,0,0,1-2.5,1.54l2.76,9.9h-1.72l-2.7-9.57h-6.85L102.55,27ZM104.53,16h5.81a5.44,5.44,0,0,0,3-.78A5.14,5.14,0,0,0,115.21,13a7.82,7.82,0,0,0,.68-3.4,3.49,3.49,0,0,0-.82-2.45,3.74,3.74,0,0,0-2.81-.89h-6Z"/><path class="cls-1" d="M119.11,27,123,4.75h12.76l-.26,1.46H124.4l-1.52,8.67h10l-.26,1.46h-10L121,25.53h11.24L132,27Z"/><path class="cls-1" d="M142.85,27.41a6.36,6.36,0,0,1-5-1.85,7.85,7.85,0,0,1-1.69-5.48,24.76,24.76,0,0,1,.18-2.85,23.18,23.18,0,0,1,.57-3.06,17.3,17.3,0,0,1,1.88-5.1,9.71,9.71,0,0,1,3.23-3.46,8.52,8.52,0,0,1,4.66-1.25,8.18,8.18,0,0,1,3.44.65,4.55,4.55,0,0,1,2.11,1.9A6,6,0,0,1,153,10c0,.39,0,.79,0,1.21a9.27,9.27,0,0,1-.21,1.38h-1.63a10.75,10.75,0,0,0,.18-1.25c0-.37,0-.75,0-1.12a5,5,0,0,0-.53-2.4,3.35,3.35,0,0,0-1.6-1.46,6.43,6.43,0,0,0-2.67-.49,6.71,6.71,0,0,0-2.86.62,6.85,6.85,0,0,0-2.39,1.88,11.84,11.84,0,0,0-1.82,3.2,23.63,23.63,0,0,0-1.22,4.6c-.06.34-.12.69-.17,1s-.1.67-.13,1-.06.61-.07.91,0,.61,0,.91a8.09,8.09,0,0,0,.61,3.42,3.93,3.93,0,0,0,1.73,1.92,5.65,5.65,0,0,0,2.67.6,7.66,7.66,0,0,0,3.39-.71,6,6,0,0,0,2.39-2.2A10.62,10.62,0,0,0,150,19.2h1.56a11.91,11.91,0,0,1-1.66,4.71,7.32,7.32,0,0,1-3,2.66A9.4,9.4,0,0,1,142.85,27.41Z"/><path class="cls-1" d="M151.81,27,162.39,4.75h1.72L166.94,27h-1.62l-.85-6.91h-7.79L153.46,27Zm5.58-8.41h6.89l-.94-7.72c0-.29-.06-.58-.1-.9s-.08-.65-.12-1-.06-.71-.08-1,0-.64-.09-.9h-.17c-.13.35-.29.76-.5,1.22l-.62,1.4c-.2.46-.39.87-.57,1.22Z"/><path class="cls-1" d="M169.7,27l3.9-22.27h6.82a6.86,6.86,0,0,1,3.11.6A3.73,3.73,0,0,1,185.24,7a5.48,5.48,0,0,1,.53,2.42,10.39,10.39,0,0,1-.5,3.31,8.49,8.49,0,0,1-1.41,2.65,6.44,6.44,0,0,1-2.19,1.73,6.68,6.68,0,0,1-2.91.62H173L171.32,27Zm3.51-10.71h5.32a5.08,5.08,0,0,0,3-.85,5.49,5.49,0,0,0,1.91-2.32,8.17,8.17,0,0,0,.68-3.49,3.49,3.49,0,0,0-.86-2.51,3.72,3.72,0,0,0-2.84-.93H175Z"/><path class="cls-1" d="M183.48,32H99.55a4,4,0,0,1-3.93-4.63l4-24A4,4,0,0,1,103.52,0h83.94a4,4,0,0,1,3.92,4.63l-4,24A4,4,0,0,1,183.48,32Zm-80-30.67a2.63,2.63,0,0,0-2.61,2.22l-4,24a2.64,2.64,0,0,0,2.62,3.08h83.93a2.65,2.65,0,0,0,2.62-2.22l4-24a2.64,2.64,0,0,0-2.61-3.08Z"/></svg>